HIERARCHY
ROOT Hips
{
	OFFSET -3.958830 18.904000 13.208200
	CHANNELS 6 Xposition Yposition Zposition Zrotation Yrotation Xrotation 
	JOINT LHipJoint
	{
		OFFSET 0.000000 0.000000 0.000000
		CHANNELS 3 Zrotation Yrotation Xrotation
		JOINT LeftUpLeg
		{
			OFFSET 1.800000 -1.400000 0.085000
			CHANNELS 3 Zrotation Yrotation Xrotation
			JOINT LeftLeg
			{
				OFFSET 2.215000 -6.000000 0.000000
				CHANNELS 3 Zrotation Yrotation Xrotation
				JOINT LeftFoot
				{
					OFFSET 2.500000 -6.900000 0.000000
					CHANNELS 3 Zrotation Yrotation Xrotation
					JOINT LeftToeBase
					{
						OFFSET 0.200000 -0.500000 1.950000
						CHANNELS 3 Zrotation Yrotation Xrotation
						End Site
						{
							OFFSET 0.000000 0.000000 0.000000
						}
					}
				}
			}
		}
	}
	JOINT RHipJoint
	{
		OFFSET 0.000000 0.000000 0.000000
		CHANNELS 3 Zrotation Yrotation Xrotation
		JOINT RightUpLeg
		{
			OFFSET -1.800000 -1.400000 0.085000
			CHANNELS 3 Zrotation Yrotation Xrotation
			JOINT RightLeg
			{
				OFFSET -2.215000 -6.000000 0.000000
				CHANNELS 3 Zrotation Yrotation Xrotation
				JOINT RightFoot
				{
					OFFSET -2.500000 -6.900000 0.000000
					CHANNELS 3 Zrotation Yrotation Xrotation
					JOINT RightToeBase
					{
						OFFSET -0.200000 -0.500000 1.950000
						CHANNELS 3 Zrotation Yrotation Xrotation
						End Site
						{
							OFFSET 0.000000 0.000000 0.000000
						}
					}
				}
			}
		}
	}
	JOINT LowerBack
	{
		OFFSET 0.000000 0.000000 0.000000
		CHANNELS 3 Zrotation Yrotation Xrotation
		JOINT Spine
		{
			OFFSET -0.087000 1.940000 -0.288900
			CHANNELS 3 Zrotation Yrotation Xrotation
			JOINT Spine1
			{
				OFFSET 0.000000 1.950000 0.060000
				CHANNELS 3 Zrotation Yrotation Xrotation
				JOINT Neck
				{
					OFFSET 0.000000 0.000000 0.000000
					CHANNELS 3 Zrotation Yrotation Xrotation
					JOINT Neck1
					{
						OFFSET 0.000000 1.600000 0.340000
						CHANNELS 3 Zrotation Yrotation Xrotation
						JOINT Head
						{
							OFFSET 0.000000 1.667000 -0.240000
							CHANNELS 3 Zrotation Yrotation Xrotation
							End Site
							{
								OFFSET 0.000000 0.000000 0.000000
							}
						}
					}
				}
				JOINT LeftShoulder
				{
					OFFSET 0.000000 0.000000 0.000000
					CHANNELS 3 Zrotation Yrotation Xrotation
					JOINT LeftArm
					{
						OFFSET 2.700000 1.550000 -0.730000
						CHANNELS 3 Zrotation Yrotation Xrotation
						JOINT LeftForeArm
						{
							OFFSET 5.450000 0.000000 0.000000
							CHANNELS 3 Zrotation Yrotation Xrotation
							JOINT LeftHand
							{
								OFFSET 3.450000 0.000000 0.000000
								CHANNELS 3 Zrotation Yrotation Xrotation
								JOINT LeftHandIndex1
								{
									OFFSET 0.750000 0.000000 0.000000
									CHANNELS 3 Zrotation Yrotation Xrotation
									End Site
									{
										OFFSET 0.000000 0.000000 0.000000
									}
								}
							}
						}
					}
				}
				JOINT RightShoulder
				{
					OFFSET 0.000000 0.000000 0.000000
					CHANNELS 3 Zrotation Yrotation Xrotation
					JOINT RightArm
					{
						OFFSET -2.700000 1.550000 -0.730000
						CHANNELS 3 Zrotation Yrotation Xrotation
						JOINT RightForeArm
						{
							OFFSET -5.450000 0.000000 0.000000
							CHANNELS 3 Zrotation Yrotation Xrotation
							JOINT RightHand
							{
								OFFSET -3.450000 0.000000 0.000000
								CHANNELS 3 Zrotation Yrotation Xrotation
								JOINT RightHandIndex1
								{
									OFFSET -0.750000 0.000000 0.000000
									CHANNELS 3 Zrotation Yrotation Xrotation
									End Site
									{
										OFFSET 0.000000 0.000000 0.000000
									}
								}
							}
						}
					}
				}
			}
		}
	}
}
MOTION
Frames: 6
Frame Time: 0.016667
0.259930 17.018200 -2.567560 -3.053919 4.935983 3.903543 -15.506316 11.782980 4.844433 20.334976 -5.313821 -35.190411 -14.173810 17.788134 44.336176 0.505088 10.425207 0.984812 0.197790 -0.158360 0.161140 18.217851 -9.615765 2.713854 -25.215801 2.114783 -31.463568 9.070680 -12.291325 38.742204 -0.378407 -6.779493 2.066662 0.014100 0.397890 0.079380 -3.080681 -2.057837 -8.846746 4.548621 0.188914 18.321645 -0.819895 1.391668 3.875352 1.620174 -0.346435 -8.546595 -3.610636 0.022999 38.631006 -3.208530 0.075910 0.991010 -24.867129 -9.216878 3.192613 -34.041961 1.637114 -6.941628 -40.185985 -29.511307 6.846512 -3.788868 3.133557 0.361660 0.271890 -0.252720 0.198520 21.895244 10.632803 5.287541 36.419197 -0.733866 -8.952325 48.388222 33.360133 8.990561 2.093039 -1.698550 -0.328960 0.258340 0.022060 -0.205910 
0.232190 16.977540 -2.575430 -2.988764 5.014218 4.085897 -15.513878 11.748039 4.909302 20.730839 -5.308571 -35.504587 -14.523856 18.026190 44.411466 0.514959 10.504906 0.950715 0.210640 -0.137970 0.152010 18.219964 -9.596299 2.679865 -25.458232 2.011189 -31.451929 8.810203 -12.023889 38.165540 -0.358576 -6.660530 2.096667 0.026710 0.396310 0.081430 -3.074253 -2.072112 -8.862679 4.454899 0.194408 18.542449 -0.866005 1.423925 3.745089 1.501585 -0.706735 -8.492593 -4.226311 0.162400 38.111903 -2.619690 -0.334660 0.330290 -24.842572 -9.104108 3.095781 -33.603106 1.641302 -6.867491 -41.174525 -29.429634 7.036478 -3.779532 3.154837 0.365030 0.261660 -0.249380 0.202680 22.084834 10.805169 5.289747 35.749990 -0.705391 -8.745553 49.513556 32.554684 8.957427 2.091477 -1.711132 -0.322680 0.259640 0.024460 -0.198540 
0.181950 16.907630 -2.598930 -2.905503 5.154218 4.570156 -15.551561 11.640482 5.077406 21.767817 -5.259120 -36.325638 -15.616517 18.694859 44.366988 0.543883 10.722070 0.883346 0.192920 -0.159670 0.138800 18.208809 -9.491523 2.656939 -25.912658 1.935058 -31.515661 9.058738 -11.822296 37.026564 -0.318646 -6.498748 2.151197 0.021570 0.406360 0.065960 -3.005555 -2.130266 -8.946508 3.927411 0.253180 18.987619 -0.688877 1.471998 3.304198 1.420717 -0.932467 -8.656105 -4.597123 0.176033 37.651706 -2.270640 -0.633810 0.054430 -24.869490 -9.368678 3.246018 -32.940827 2.172694 -6.885058 -42.923319 -29.266267 7.313019 -3.774869 3.147213 0.378190 0.256000 -0.258200 0.197060 22.304375 11.357524 5.443196 34.748057 -0.733389 -8.535165 51.193440 31.792106 9.068290 2.091596 -1.704501 -0.343400 0.278940 0.039310 -0.202020 
0.119590 16.828510 -2.633850 -2.751239 5.374034 4.962347 -15.607271 11.496151 5.261263 22.921036 -5.194026 -37.514038 -16.361097 19.486087 45.050535 0.600711 11.016662 0.790558 0.208000 -0.134610 0.139800 18.194994 -9.308900 2.686121 -26.747915 1.928063 -31.713124 9.996011 -12.108119 36.535613 -0.341673 -6.523120 2.145628 0.029110 0.403890 0.061640 -2.905440 -2.241056 -9.073953 3.161851 0.421909 19.944827 -0.263001 1.607495 2.748797 1.269123 -1.255477 -8.786879 -5.201295 -0.000634 37.216274 -1.656000 -1.306080 -1.472150 -24.787982 -9.595712 3.318074 -32.375017 2.419521 -6.855862 -44.667320 -28.893088 7.499589 -3.756213 3.129381 0.403230 0.235360 -0.235720 0.205110 22.576300 12.022882 5.575021 33.681034 -0.592286 -8.381440 52.395704 31.176197 9.119763 2.087653 -1.683682 -0.341050 0.308050 0.036950 -0.194040 
0.046620 16.760440 -2.668350 -2.989706 5.533422 5.033049 -15.652194 11.356894 5.434851 24.401355 -4.802659 -38.563010 -16.912197 20.217919 45.526018 0.666081 11.247779 0.702693 0.205240 -0.132520 0.130290 18.187808 -9.104294 2.781997 -27.181478 2.313732 -32.256010 11.162657 -12.771340 37.383073 -0.397443 -6.762083 2.067353 0.015700 0.376030 0.056810 -2.832773 -2.334995 -9.260583 2.885504 0.662326 21.597405 0.135220 1.965076 1.580632 1.232874 -1.471084 -9.181346 -5.657595 -0.079175 37.416435 -1.170870 -1.700580 -1.821930 -25.349488 -10.236412 3.587583 -31.510654 3.282937 -7.027437 -46.083324 -29.113554 7.847793 -3.720841 3.153413 0.411570 0.208940 -0.220500 0.197920 23.259988 13.134625 5.971196 32.163869 -0.917186 -8.291170 53.373757 30.435469 9.044021 2.094067 -1.684138 -0.323580 0.292200 0.037880 -0.191070 
-0.029240 16.705280 -2.697170 -3.396123 5.697070 4.976040 -15.690992 11.184045 5.592789 25.896802 -4.335688 -39.750511 -16.931840 21.009694 46.713129 0.734481 11.561434 0.600592 0.198300 -0.142890 0.130210 18.197070 -8.852641 2.930788 -27.604924 2.887662 -33.001771 12.925150 -13.860831 38.783356 -0.488019 -7.163859 1.936057 0.001740 0.360880 0.046090 -2.791733 -2.411939 -9.460178 2.925022 0.850978 23.500049 0.308189 2.386983 0.188742 1.216665 -1.625722 -9.464728 -5.958353 -0.322559 37.356778 -0.614280 -2.262490 -2.274230 -26.401450 -10.853506 3.756974 -30.494134 4.298797 -7.178196 -47.042053 -28.828986 7.866448 -3.691222 3.157934 0.423830 0.186710 -0.214740 0.185590 24.367519 14.146045 6.298853 30.550476 -1.387453 -8.220970 54.066074 29.423832 8.753136 2.092449 -1.677649 -0.320350 0.291630 0.043320 -0.192990 
